<?xml version="1.0" standalone="no"?><!DOCTYPE svg PUBLIC "-//W3C//DTD SVG 1.1//EN" "http://www.w3.org/Graphics/SVG/1.1/DTD/svg11.dtd"><svg t="1608857068601" class="icon" viewBox="0 0 1024 1024" version="1.1" xmlns="http://www.w3.org/2000/svg" p-id="801" xmlns:xlink="http://www.w3.org/1999/xlink" width="200" height="200"><defs><style type="text/css"></style></defs><path d="M254.272 134.144L254.272 134.144c14.016 0 23.296 0.32 23.872 0.32l4.416 0 1.472 0c56.448 0 105.088 5.184 126.784 10.752 6.336 25.216 11.264 83.84 10.816 136.192 0.448 51.392-4.48 109.824-10.816 135.04C389.12 422.144 340.48 427.264 284.096 427.264l-6.08 0c-0.576 0-10.048 0.384-24.384 0.384-63.68 0-98.304-6.08-112.512-10.24C133.248 397.12 126.4 341.248 128.192 281.6l0.064-2.112L128.192 277.504c-1.792-58.304 4.992-113.152 12.8-133.12C155.264 140.224 190.08 134.144 254.272 134.144M254.272 70.144c-40.704 0-117.888 2.56-150.656 20.672C58.752 115.584 64.064 274.56 64.256 279.68 64.064 284.864 58.752 446.272 103.552 471.04c32.64 18.048 109.248 20.608 150.08 20.608 16.192 0 26.752-0.384 26.752-0.384s1.344 0 3.712 0c23.232 0 148.992-1.216 174.656-27.648 28.224-29.184 26.88-182.72 26.88-182.72s1.344-153.536-26.88-182.72C433.088 71.68 306.88 70.528 284.032 70.528c-2.304 0-3.584 0-3.584 0S270.144 70.144 254.272 70.144L254.272 70.144zM728.64 134.144L728.64 134.144c14.016 0 23.296 0.32 23.808 0.32l4.48 0 1.408 0c56.448 0 105.088 5.184 126.72 10.752 6.4 25.216 11.264 83.84 10.816 136.256 0.512 51.328-4.352 109.76-10.752 134.976-21.696 5.568-70.336 10.688-126.656 10.688l-6.144 0c-0.512 0-9.984 0.384-24.384 0.384-63.744 0-98.304-6.08-112.512-10.24C606.656 395.328 600.704 334.784 602.56 281.984L602.688 279.68 602.56 277.312c-1.856-51.776 4.032-111.168 12.8-132.928C629.568 140.224 664.384 134.144 728.64 134.144M728.64 70.144c-40.704 0-117.888 2.56-150.656 20.672C533.12 115.584 538.432 274.56 538.624 279.68 538.432 284.864 533.12 446.272 577.92 471.04c32.64 18.048 109.248 20.608 150.08 20.608 16.256 0 26.816-0.384 26.816-0.384s1.344 0 3.712 0c23.232 0 148.928-1.216 174.592-27.648 28.352-29.184 26.88-182.72 26.88-182.72s1.408-153.536-26.88-182.72c-25.664-26.496-151.808-27.712-174.656-27.712-2.304 0-3.584 0-3.584 0S744.512 70.144 728.64 70.144L728.64 70.144zM254.144 602.496c14.08 0 23.36 0.32 23.936 0.32L282.688 602.88l1.472 0c56.384 0 104.96 5.12 126.656 10.752 6.336 25.216 11.264 83.776 10.816 136.192 0.448 51.392-4.416 109.824-10.816 135.04C389.12 890.496 340.48 895.616 284.16 895.616l-6.08 0.064C277.504 895.68 268.16 896 254.016 896c-63.936 0-98.624-6.08-112.896-10.176-7.936-20.352-14.72-76.224-12.928-135.936l0.064-2.048-0.064-1.984c-1.792-58.24 4.928-113.024 12.8-132.992C155.2 608.64 189.952 602.496 254.144 602.496M254.144 538.496c-40.768 0-117.824 2.56-150.592 20.672-44.8 24.704-39.488 183.68-39.296 188.8-0.128 5.248-5.504 166.656 39.296 191.36C136.256 957.44 213.312 960 254.016 960c16 0 26.432-0.384 26.432-0.384s1.344 0 3.712 0c23.232 0 148.992-1.28 174.592-27.648 28.224-29.12 26.88-182.72 26.88-182.72s1.344-153.536-26.88-182.656C433.152 540.096 307.392 538.88 284.096 538.88c-2.368 0-3.712 0-3.712 0S270.08 538.496 254.144 538.496L254.144 538.496zM728.512 602.496c14.08 0 23.36 0.32 23.936 0.32l4.608 0.064 1.408 0c56.384 0 104.96 5.12 126.656 10.752 6.4 25.216 11.264 83.776 10.816 136.256 0.512 51.392-4.352 109.888-10.752 134.976-21.696 5.632-70.336 10.752-126.656 10.752l-6.08 0.064c-0.576 0-9.856 0.32-24 0.32-64 0-98.752-6.08-112.96-10.24-8.832-22.144-14.784-82.624-12.928-135.424l0.128-2.304-0.128-2.304c-1.856-51.776 4.032-111.104 12.8-132.864C629.504 608.64 664.256 602.496 728.512 602.496M728.512 538.496c-40.768 0-117.824 2.56-150.592 20.672-44.8 24.704-39.488 183.68-39.296 188.8-0.192 5.248-5.504 166.656 39.296 191.36C610.688 957.44 687.616 960 728.448 960c15.936 0 26.368-0.384 26.368-0.384s1.344 0 3.712 0c23.232 0 148.928-1.28 174.592-27.648 28.352-29.12 26.88-182.72 26.88-182.72s1.408-153.536-26.88-182.656c-25.6-26.496-151.296-27.712-174.592-27.712-2.368 0-3.712 0-3.712 0S744.448 538.496 728.512 538.496L728.512 538.496z" p-id="802"></path></svg>