<?xml version="1.0" standalone="no"?><!DOCTYPE svg PUBLIC "-//W3C//DTD SVG 1.1//EN" "http://www.w3.org/Graphics/SVG/1.1/DTD/svg11.dtd"><svg t="1608788084718" class="icon" viewBox="0 0 1024 1024" version="1.1" xmlns="http://www.w3.org/2000/svg" p-id="771" xmlns:xlink="http://www.w3.org/1999/xlink" width="200" height="200"><defs><style type="text/css"></style></defs><path d="M892.02148438 123.69042969h-759.375c-38.83886719 0-70.3125 31.47363281-70.3125 70.3125v502.23339844c0 38.83886719 31.47363281 70.3125 70.3125 70.3125h759.375c38.83007813 0 70.3125-31.47363281 70.3125-70.3125V194.00292969c0-38.83886719-31.48242187-70.3125-70.3125-70.3125z m4.79003906 530.37597656c0 23.08007813-18.71191406 41.79199219-41.79199219 41.79199219H721.28515625V453.47363281c0-23.08007813-18.703125-41.79199219-41.79199219-41.79199218-23.08007813 0-41.79199219 18.71191406-41.79199218 41.79199218v242.38476563h-83.58398438V369.88964844c0-23.08007813-18.703125-41.79199219-41.79199219-41.79199219-23.08007813 0-41.79199219 18.71191406-41.79199218 41.79199219v325.96875h-83.58398438v-175.51757813c0-23.08007813-18.703125-41.79199219-41.79199219-41.79199218-23.08007813 0-41.79199219 18.703125-41.79199218 41.79199218v175.51757813H169.65722656c-23.08007813 0-41.79199219-18.71191406-41.79199219-41.79199219V236.1640625c0-23.08007813 18.71191406-41.79199219 41.79199219-41.79199219h685.36230469c23.08007813 0 41.79199219 18.71191406 41.79199219 41.79199219v417.90234375zM697.15917969 830.83203125H327.50878906c-22.19238281 0-40.17480469 17.99121094-40.17480468 40.17480469 0 22.19238281 17.99121094 40.17480469 40.17480468 40.17480468h369.65039063c22.18359375 0 40.17480469-17.98242188 40.17480468-40.17480468 0-22.18359375-17.99121094-40.17480469-40.17480468-40.17480469z m0 0" fill="#333333" p-id="772"></path></svg>