<?xml version="1.0" standalone="no"?><!DOCTYPE svg PUBLIC "-//W3C//DTD SVG 1.1//EN" "http://www.w3.org/Graphics/SVG/1.1/DTD/svg11.dtd"><svg t="1608865853007" class="icon" viewBox="0 0 1024 1024" version="1.1" xmlns="http://www.w3.org/2000/svg" p-id="892" xmlns:xlink="http://www.w3.org/1999/xlink" width="200" height="200"><defs><style type="text/css"></style></defs><path d="M572 481.9h-8.6l33 184c21.9-7.9 41.7-19.4 59.2-34.7-17.9-21.9-32.7-46.2-43.9-72.2l34.8-4.5c9.6 19.7 20.6 37.1 33 52.1 25.7-31.2 45.5-72.8 59.3-124.8l-166.8 0.1z m131.4 149.4c19.8 17.2 42.4 29.7 67.8 37.5l15.9 4.9-9.3 33.9-15.9-4.9c-30.5-9.3-58.6-25.3-82.4-46.6-22.3 20-48.4 35.3-76.8 44.8L625 824.8H492.5l-17.8 81h415.2c19.5 0 35.3-15.8 35.3-35.3V270c0-19.5-15.8-35.3-35.3-35.3H519l27.6 153.9-1.1-0.4 3.2 16.9 0.5-2.2 7.8 43.8h85.6v-35.3h66.2v35.3h110.4V482h-46c-15.4 62-38.6 111.9-69.8 149.3zM456.3 824.6H134.1c-39 0-70.6-31.6-70.6-70.6V153.5c0-39 31.6-70.6 70.6-70.6h353.2l22.2 116.5h380.3c39 0 70.6 31.6 70.6 70.6v600.5c0 39-31.6 70.6-70.6 70.6H430.7l25.6-116.5z m-166.9-272v-37.1h-69.8v-54.7h64.9V424h-64.9v-46.6h69.8v-36.8H179v211.9h110.4z m170.6 0V446.9c0-19.2-4.4-33.9-13.2-44.2-8.8-10.2-21.8-15.3-38.8-15.3-10 0-18.9 2-26.7 6-7.8 4-14.2 10.1-18.4 17.8h-2.2l-5.4-20.7h-30.6v162.1h40v-76.3c0-19.1 2.5-32.8 7.5-41.1 4.9-8.3 13.1-12.4 24.3-12.4 8.2 0 14.2 2.9 17.9 8.8 3.8 5.9 5.7 14.6 5.7 26.3v94.7H460z" p-id="893"></path></svg>