<?xml version="1.0" standalone="no"?><!DOCTYPE svg PUBLIC "-//W3C//DTD SVG 1.1//EN" "http://www.w3.org/Graphics/SVG/1.1/DTD/svg11.dtd"><svg t="1608865859455" class="icon" viewBox="0 0 1024 1024" version="1.1" xmlns="http://www.w3.org/2000/svg" p-id="1021" xmlns:xlink="http://www.w3.org/1999/xlink" width="200" height="200"><defs><style type="text/css"></style></defs><path d="M392 912.00000031H231.99999969c-67.99999969 0-120-52.00000031-120-120V231.99999969c0-67.99999969 52.00000031-120 120-120h160.00000031c24 0 40.00000031 16.00000031 40.00000031 40.00000031s-16.00000031 40.00000031-40.00000031 40.00000031H231.99999969c-24 0-40.00000031 16.00000031-39.99999938 39.99999938v560.00000062c0 24 16.00000031 40.00000031 39.99999938 39.99999938h160.00000031c24 0 40.00000031 16.00000031 40.00000031 40.00000031s-16.00000031 40.00000031-40.00000031 40.00000031zM672.00000031 752c-12 0-19.99999969-4.00000031-28.00000031-12-16.00000031-16.00000031-16.00000031-40.00000031 0-55.99999969l172.00000031-172.00000031-172.00000031-172.00000031c-16.00000031-16.00000031-16.00000031-40.00000031 0-55.99999969s40.00000031-16.00000031 55.99999969 0l200.00000062 199.99999969c16.00000031 16.00000031 16.00000031 40.00000031 0 56.00000062l-200.00000062 199.99999969c-7.99999969 7.99999969-16.00000031 12-27.99999938 12z" p-id="1022"></path><path d="M872 552.00000031H392c-24 0-40.00000031-16.00000031-40.00000031-40.00000031s16.00000031-40.00000031 40.00000031-40.00000031h480c24 0 40.00000031 16.00000031 40.00000031 40.00000031s-16.00000031 40.00000031-40.00000031 40.00000031z" p-id="1023"></path></svg>