<?xml version="1.0" standalone="no"?><!DOCTYPE svg PUBLIC "-//W3C//DTD SVG 1.1//EN" "http://www.w3.org/Graphics/SVG/1.1/DTD/svg11.dtd"><svg t="1608872168242" class="icon" viewBox="0 0 1024 1024" version="1.1" xmlns="http://www.w3.org/2000/svg" p-id="1060" xmlns:xlink="http://www.w3.org/1999/xlink" width="200" height="200"><defs><style type="text/css"></style></defs><path d="M572 272L122 272C104 272 92 260 92 242s12-30 30-30l450 0c18 0 30 12 30 30S590 272 572 272z" p-id="1061"></path><path d="M572 542L122 542c-18 0-30-12-30-30s12-30 30-30l450 0c18 0 30 12 30 30S590 542 572 542z" p-id="1062"></path><path d="M902 812L122 812c-18 0-30-12-30-30s12-30 30-30l780 0c18 0 30 12 30 30S920 812 902 812z" p-id="1063"></path><path d="M752 542c-9 0-15-3-21-9-12-12-9-30 3-42l126-114-126-114c-12-12-12-30-3-42 12-12 30-12 42-3l150 135c6 6 9 15 9 21s-3 18-9 21l-150 135C767 539 758 542 752 542z" p-id="1064"></path></svg>