<?xml version="1.0" standalone="no"?><!DOCTYPE svg PUBLIC "-//W3C//DTD SVG 1.1//EN" "http://www.w3.org/Graphics/SVG/1.1/DTD/svg11.dtd"><svg t="1608786931204" class="icon" viewBox="0 0 1024 1024" version="1.1" xmlns="http://www.w3.org/2000/svg" p-id="999" xmlns:xlink="http://www.w3.org/1999/xlink" width="200" height="200"><defs><style type="text/css"></style></defs><path d="M499.86370333 571.46785223c-143.45102222 0-260.20219221-116.75116999-260.20219222-260.20219335S356.16995555 50.82074112 499.86370333 50.82074112s260.20219221 116.75116999 260.20219334 260.20219221-116.75116999 260.4449189-260.20219334 260.4449189zM499.86370333 123.6385189c-103.40124445 0-187.38441443 84.22589667-187.38441444 187.38441443s84.22589667 187.38441443 187.38441444 187.38441444 187.38441443-84.22589667 187.38441557-187.38441444S603.26494777 123.6385189 499.86370333 123.6385189z" p-id="1000"></path><path d="M87.22963001 948.90666667c-1.45635555 0-2.66998557 0-4.12634112-0.24272555-19.90352555-2.18453333-34.22435555-20.38897778-32.03982222-40.29250446 0.72817778-6.5536 3.15543666-20.14625223 5.09724444-30.09801444l1.45635556-7.76723001c37.13706667-215.29789667 223.30785223-371.61339221 442.24663666-371.61339221 40.04977778 0 79.85683001 5.33996999 117.9648 15.77718557 19.41807445 5.33996999 30.82619221 25.24349667 25.48622222 44.66156998-5.33996999 19.41807445-25.24349667 30.82619221-44.66157 25.48622223-32.03982222-8.73813333-65.29327445-13.1072-99.03217777-13.1072-183.5008 0-339.33084445 130.82927445-370.64248889 311.17463665l-1.45635556 8.49540779c-1.45635555 8.49540779-3.64088889 19.90352555-4.36906666 25.48622223C121.21125888 935.31401443 105.43407445 948.90666667 87.22963001 948.90666667zM719.04521443 966.14020779c-2.18453333 0-4.12634112-0.24272555-6.31087331-0.72817778a205.15195221 205.15195221 0 0 1-88.10951111-49.51608889 24.15123001 24.15123001 0 0 1-7.28177778-19.90352669l4.12633998-43.20521443-39.80705109-16.99081443a24.10268445 24.10268445 0 0 1-13.83537778-16.01991112 205.83158557 205.83158557 0 0 1-3.39816334-91.7504c0.48545223-2.42725888 0.97090333-4.61179221 1.6990811-6.79632668l0.72817778-2.42725888c1.6990811-7.28177778 6.79632555-13.34992555 13.59265223-16.50536334l39.3216-17.96171776-5.09724444-43.20521558c-0.97090333-7.52450333 1.6990811-14.8062811 7.03905223-20.14625109 24.02986667-24.02986667 54.1278811-41.74885888 86.8958811-51.45789667 7.28177778-2.18453333 14.8062811-0.72817778 20.87443001 3.64088888l35.19525888 25.24349668 34.70980778-25.97167446c6.06814777-4.36906667 13.59265223-6.06814777 20.87442888-4.12634112 33.01072555 8.98085888 63.59419221 25.97167445 88.10951111 49.5160889 5.33996999 5.09724445 8.00995555 12.37902222 7.28177777 19.90352668l-4.12633998 42.96248889 39.8070511 16.99081443c6.79632555 2.91271111 11.89356999 8.98085888 13.83537778 16.01991112 8.00995555 30.34074112 9.22358557 61.40965888 3.39816334 91.7504-0.48545223 2.42725888-0.97090333 4.61179221-1.6990811 6.79632554l-0.72817778 2.42726002c-1.6990811 7.28177778-6.79632555 13.34992555-13.59265224 16.5053622l-39.3216 17.9617189 5.09724445 43.20521444c0.97090333 7.52450333-1.6990811 14.8062811-7.03905223 20.14625223-24.02986667 24.02986667-54.1278811 41.74885888-86.8958811 51.45789667-7.03905223 2.18453333-14.8062811 0.72817778-20.87443001-3.64088888l-35.19525888-25.24349668-34.70980779 25.97167445c-4.36906667 3.39816334-9.46631111 5.09724445-14.56355556 5.09724445z m-52.4288-77.91502222c14.07810333 11.65084445 30.34074112 20.63170333 47.81700779 26.69985109l38.83614777-29.12711111a24.02986667 24.02986667 0 0 1 28.64166002-0.24272555l39.56432554 28.39893333c17.23354112-6.5536 33.25345223-16.01991111 47.08883002-27.9134811l-5.82542223-48.54518556c-1.21363001-10.43721443 4.36906667-20.63170333 14.07810333-25.00077l44.41884444-20.14625222c2.91271111-18.20444445 2.66998557-36.40888889-0.72817778-54.61333334l-44.66156999-19.17534777c-9.70903666-4.12634112-15.53445888-14.07810333-14.56355555-24.75804444l4.61179221-48.54518557c-14.07810333-11.65084445-30.34074112-20.63170333-47.81700779-26.69985223l-38.83614776 29.12711111a24.02986667 24.02986667 0 0 1-28.64165888 0.24272669l-39.56432669-28.39893333c-17.23354112 6.5536-33.25345223 16.01991111-47.08882887 27.9134811l5.82542222 48.54518556c1.21363001 10.43721443-4.36906667 20.63170333-14.07810446 25.00076999l-44.41884444 20.14625223c-2.91271111 18.20444445-2.66998557 36.40888889 0.72817777 54.61333334l44.66157113 19.17534776c9.70903666 4.12634112 15.53445888 14.07810333 14.56355556 24.75804445l-4.61179336 48.54518557z m275.73665224-78.6432z" p-id="1001"></path><path d="M768.80403001 848.66085888c-44.66156999 0-81.07045888-36.40888889-81.07046002-81.07045888s36.40888889-81.07045888 81.07046002-81.07045888 81.07045888 36.40888889 81.07045888 81.07045888-36.40888889 81.07045888-81.07045888 81.07045888z m0-113.59573333a32.52527445 32.52527445 0 1 0 0 65.0505489 32.52527445 32.52527445 0 0 0 0-65.0505489z" p-id="1002"></path></svg>