<?xml version="1.0" standalone="no"?><!DOCTYPE svg PUBLIC "-//W3C//DTD SVG 1.1//EN" "http://www.w3.org/Graphics/SVG/1.1/DTD/svg11.dtd"><svg t="1608786926325" class="icon" viewBox="0 0 1024 1024" version="1.1" xmlns="http://www.w3.org/2000/svg" p-id="870" xmlns:xlink="http://www.w3.org/1999/xlink" width="200" height="200"><defs><style type="text/css"></style></defs><path d="M876.08888853 967.11111147c-27.30666667 0-45.51111147-18.2044448-45.5111104-45.51111147v-91.02222187c0-77.36888853-59.1644448-136.53333333-136.53333333-136.53333333H329.9555552c-77.36888853 0-136.53333333 59.1644448-136.53333333 136.53333333v91.02222187c0 27.30666667-18.2044448 45.51111147-45.5111104 45.51111147s-45.51111147-18.2044448-45.51111147-45.51111147v-91.02222187c0-127.43111147 100.1244448-227.5555552 227.5555552-227.55555626h364.0888896c127.43111147 0 227.5555552 100.1244448 227.5555552 227.55555626v91.02222187c0 27.30666667-18.2044448 45.51111147-45.51111147 45.51111147zM512 512c-127.43111147 0-227.5555552-100.1244448-227.5555552-227.5555552s100.1244448-227.5555552 227.5555552-227.55555627 227.5555552 100.1244448 227.5555552 227.55555627-100.1244448 227.5555552-227.5555552 227.5555552z m0-364.08888853c-77.36888853 0-136.53333333 59.1644448-136.53333333 136.53333333s59.1644448 136.53333333 136.53333333 136.53333333 136.53333333-59.1644448 136.53333333-136.53333333-59.1644448-136.53333333-136.53333333-136.53333333z" p-id="871"></path></svg>